# xmcd
#
# Track frame offsets: 
#        150
#        14593
#        32615
#        46054
#        61205
#        82275
#        96783
#        113994
#        125943
#        145248
#        159611
#        175147
#        186572
#        200091
#        214745
#        233084
#        249623
#        260712
#        283093
#        300507
#        316687
#        334419
#
# Disc length: 4713 seconds
#
# Revision: 1
# Processed by: cddbd v1.5.2PL0 Copyright (c) Steve Scherf et al.
# Submitted via: ExactAudioCopy v1.0b3
#
DISCID=51126716
DTITLE=Various Artist - 2002` Country Collection
DYEAR=2002
DGENRE=Country
TTITLE0=Terry Clark - A Little Gasoline
TTITLE1=Alan Jackson - Chattahooche
TTITLE2=Sheryl Crow - Long Gone Lonesome Blues
TTITLE3=Linda G.Lewia - Old Black Joe
TTITLE4=Lee Ann Rimes - One of These Days
TTITLE5=Tom Petty - You're Gonna Change (or I'm gonna leave)
TTITLE6=Mark Chesnutt - This Heartache Never Sleep
TTITLE7=Martina McBride - My Baby Loves Me
TTITLE8=Gary Allen - Smoke Rings in a Dark
TTITLE9=Darryl Worley - A Good Day to Run
TTITLE10=Toby Keith - How do yo like me now
TTITLE11=Garth Brooks - Beer Run
TTITLE12=Bob Dylan - I Can't Get You Off of My Mind
TTITLE13=Alan Jackson - Summertime Blues
TTITLE14=John Hiatt - Lincoln Town
TTITLE15=Hank III - I'm a Long Gone Daddy
TTITLE16=Neal Coty - Right Down to the Middle of Us
TTITLE17=Mark Knopfler - What It Is
TTITLE18=Chely Wright - It Was
TTITLE19=The Whites - Keep on the Sunny Side
TTITLE20=Shania Twain - Man! I Feel like a Women!
TTITLE21=Vince Gill - Feels Like Love
EXTD=
EXTT0=
EXTT1=
EXTT2=
EXTT3=
EXTT4=
EXTT5=
EXTT6=
EXTT7=
EXTT8=
EXTT9=
EXTT10=
EXTT11=
EXTT12=
EXTT13=
EXTT14=
EXTT15=
EXTT16=
EXTT17=
EXTT18=
EXTT19=
EXTT20=
EXTT21=
PLAYORDER=
